<svg width="20" height="23" viewBox="0 0 20 23" fill="none" xmlns="http://www.w3.org/2000/svg">
<path fill-rule="evenodd" clip-rule="evenodd" d="M7 0.5H13C14.1046 0.5 15 1.39543 15 2.5V3.5H18C19.1046 3.5 20 4.39543 20 5.5V7.5C20 8.60457 19.1046 9.5 18 9.5H17.9199L17 20.5C17 21.6046 16.1046 22.5 15 22.5H5C3.89543 22.5 3 21.6046 3.00345 20.583L2.07987 9.5H2C0.89543 9.5 0 8.60457 0 7.5V5.5C0 4.39543 0.89543 3.5 2 3.5H5V2.5C5 1.39543 5.89543 0.5 7 0.5ZM2 5.5H5H15H18V7.5H2V5.5ZM4.08649 9.5H15.9132L15.0035 20.417L15 20.5H5L4.08649 9.5ZM13 2.5V3.5H7V2.5H13Z" fill="#C10909"/>
</svg>
